<?xml version="1.0" encoding="UTF-8"?>
<svg width="704px" height="265px" viewBox="0 0 704 265" version="1.1" xmlns="http://www.w3.org/2000/svg" xmlns:xlink="http://www.w3.org/1999/xlink">
    <title>Combined Shape</title>
    <g id="2022" stroke="none" stroke-width="1" fill="none" fill-rule="evenodd">
        <g id="s33e-Landing-WEB-3-Copy" transform="translate(-656.000000, -489.000000)" fill="#50555C">
            <path d="M916,604 C957.421356,604 991,637.578644 991,679 C991,720.421356 957.421356,754 916,754 C874.578644,754 841,720.421356 841,679 L875.892816,678.999953 C875.886762,679.289936 875.883721,679.580659 875.883721,679.872093 C875.883721,702.509346 894.23484,720.860465 916.872093,720.860465 C939.509346,720.860465 957.860465,702.509346 957.860465,679.872093 C957.860465,657.958219 940.663435,640.060926 919.028639,638.939479 C918.024222,638.979859 917.014463,639 916,639 L916.000951,638.892795 C916.000618,638.892802 916.000286,638.892809 915.999953,638.892816 L916,604.116279 L916,604.116 L916,604 Z M1285,639 C1283.98554,639 1282.97578,638.979859 1281.9711,638.939954 C1260.33656,640.060926 1243.13953,657.958219 1243.13953,679.872093 C1243.13953,702.509346 1261.49065,720.860465 1284.12791,720.860465 C1306.76516,720.860465 1325.11628,702.509346 1325.11628,679.872093 C1325.11628,679.580659 1325.11324,679.289936 1325.10718,678.999953 L1325.10718,678.999953 L1360,679 C1360,720.421356 1326.42136,754 1285,754 C1243.57864,754 1210,720.421356 1210,679 C1210,637.578644 1243.57864,604 1285,604 L1285,604 Z M1100,604 C1141.42136,604 1175,637.578644 1175,679 C1175,720.421356 1141.42136,754 1100,754 C1058.57864,754 1025,720.421356 1025,679 L1059.89282,678.999953 C1059.88676,679.289936 1059.88372,679.580659 1059.88372,679.872093 C1059.88372,702.509346 1078.23484,720.860465 1100.87209,720.860465 C1123.50935,720.860465 1141.86047,702.509346 1141.86047,679.872093 C1141.86047,657.958219 1124.66344,640.060926 1103.02864,638.939479 C1102.02422,638.979859 1101.01446,639 1100,639 L1100.00095,638.892795 C1100.00062,638.892802 1100.00029,638.892809 1099.99995,638.892816 L1100,604.116279 L1100,604.116 L1100,604 Z M743.860989,605.16376 L744.225,605.227 L743.943,605.178 L744.354,605.25 L744.382,605.255 L744.414,605.261 L744.44,605.266 L744.531,605.283 L744.596,605.295 L744.860942,605.343492 L744.860942,605.343492 L744.927,605.356 L744.932,605.357 L744.948,605.36 L744.971,605.364 L744.969,605.364 L745.019074,605.373202 L745.019074,605.373202 L745.18,605.404 L745.535,605.473 L746.191,605.605 L746.496,605.668 L746.667,605.704 L747.482937,605.882016 L747.482937,605.882016 L747.788,605.951 L747.86,605.968 L747.85,605.965 L747.788,605.951 L747.771,605.947 L747.85,605.965 L747.905,605.978 L747.937562,605.985418 L747.937562,605.985418 L748.116,606.027 L748.259,606.06 L748.358514,606.083834 L748.358514,606.083834 L748.473,606.111 L748.391136,606.091568 L748.855673,606.20339 L748.855673,606.20339 L748.960888,606.229156 L749.397,606.338 L750.073,606.512 L750.029,606.5 L750.124,606.525 L750.175,606.538 L750.312,606.574 L750.235,606.554 L750.175,606.538 L750.143763,606.530032 L750.235,606.554 L750.39,606.595 L750.504,606.626 L750.559,606.641 L750.683261,606.67414 L750.683261,606.67414 L750.962,606.751 L751.13909,606.799288 L751.13909,606.799288 L751.169,606.808 L751.221154,606.822149 L751.221154,606.822149 L751.206,606.818 L751.195,606.815 L751.19,606.814 L751.206,606.818 L751.784,606.982 L751.816,606.991 L751.8,606.986 L751.784,606.982 L751.253,606.831 L751.785331,606.982065 L751.785331,606.982065 L751.8,606.986 L751.817,606.991 L751.816,606.991 L751.844242,606.99904 L751.844242,606.99904 C752.188542,607.098405 752.531823,607.20017 752.874067,607.304315 L752.927305,607.320537 L752.927305,607.320537 L753.153,607.39 L752.926,607.32 L753.504934,607.49935 L753.504934,607.49935 L753.311,607.439 L753.44169,607.479521 L753.44169,607.479521 L753.994,607.655 L753.504934,607.49935 L753.995,607.655 L754.048177,607.672228 L754.048177,607.672228 L754.363,607.775 L754.553916,607.837304 L754.553916,607.837304 L754.67,607.876 L755.122,608.027 L755.168,608.043 L755.128,608.029 L755.169831,608.043766 L755.169831,608.043766 L755.281,608.082 L755.620311,608.198571 L755.620311,608.198571 L756.018,608.338 L755.747918,608.24301 L756.164,608.39 L756.219,608.41 L756.21,608.406 L756.164,608.39 L756.140282,608.381279 L756.21,608.406 L756.261,608.425 L756.28394,608.432522 L756.28394,608.432522 L756.69,608.579 L756.508,608.514 L756.697843,608.58202 C756.883356,608.649646 757.068527,608.717983 757.253352,608.787028 L756.818089,608.625971 L757.386524,608.836922 L757.386524,608.836922 L757.695,608.954 L757.772894,608.983324 L757.772894,608.983324 L757.828,609.005 L757.881,609.025 L758.118,609.117 L758.366,609.213 L758.379,609.218 L758.48492,609.259575 L758.48492,609.259575 L758.667,609.332 L758.727,609.356 L758.875658,609.414757 L758.875658,609.414757 L758.94,609.44 L759.159,609.529 L759.337,609.601 L759.499,609.667 L759.504,609.669 L759.543629,609.685983 L759.543629,609.685983 L759.726,609.761 L760.033148,609.889552 L760.033148,609.889552 L760.598,610.129 L760.070161,609.90511 C760.422486,610.053321 760.773442,610.204145 761.123002,610.357558 L761.132709,610.361819 L761.29,610.431 L761.652,610.592 L761.933,610.719 L762.172,610.827 L762.301,610.887 L762.733377,611.087182 L762.733377,611.087182 L763.173,611.294 L763.215,611.314 L763.66021,611.5282 L763.66021,611.5282 L763.79202,611.592194 L763.79202,611.592194 L763.943,611.666 L764.235737,611.809976 C764.427118,611.904695 764.618037,612.000207 764.80849,612.096507 L765.343319,612.36964 L765.343319,612.36964 L765.733,612.572 L765.804,612.609 L765.994,612.709 L766.408929,612.93015 L766.408929,612.93015 L766.813,613.149 L766.409,612.93 L766.81537,613.149749 L766.81537,613.149749 L766.973,613.236 L767.331,613.433 L767.404682,613.473948 L767.404682,613.473948 L767.587,613.576 L767.844,613.72 L767.867715,613.733546 L768.349,614.007 L768.197,613.921 L768.348074,614.007445 L768.348074,614.007445 L768.512,614.102 L768.869826,614.310304 L768.869826,614.310304 L769.314,614.573 L768.87,614.31 L769.315066,614.573219 C769.477622,614.669966 769.639781,614.76731 769.80154,614.865248 L769.868491,614.905832 L769.868491,614.905832 L770.318,615.181 L770.564,615.334 L770.351612,615.201532 L770.605,615.359 L770.823222,615.495057 L770.823222,615.495057 L770.982,615.595 L771.348933,615.828004 L771.348933,615.828004 L771.763,616.095 L771.349,615.828 L771.764144,616.095314 L771.764144,616.095314 L771.862317,616.159084 L772.33215,616.467298 L772.33215,616.467298 L772.592,616.64 L772.738288,616.737806 L772.738288,616.737806 L772.799527,616.778925 L772.954,616.883 L773.228,617.069 L773.53,617.277 L773.240325,617.077489 L773.531,617.277 L773.731615,617.415662 L773.731615,617.415662 L774.106,617.677 L774.163,617.717 L774.409,617.892 L774.673353,618.080168 L774.673353,618.080168 L774.674,618.081 L775.124131,618.405975 L775.124131,618.405975 L775.068,618.365 L775.539199,618.710493 L775.539199,618.710493 L775.597731,618.753788 L775.597731,618.753788 L776.006,619.059 L775.802,618.906 L776.007335,619.059228 L776.007335,619.059228 L776.068497,619.105209 L776.36,619.326 L776.506561,619.437399 L776.506561,619.437399 L776.915,619.751 L776.925,619.759 L776.942107,619.772716 L777.407639,620.136766 L777.407639,620.136766 L777.528,620.232 L777.824421,620.467729 L777.824421,620.467729 L777.870218,620.504391 L778.316861,620.865018 L778.316861,620.865018 L778.55,621.056 L778.724563,621.199153 L778.724563,621.199153 L779.172,621.571 L779.582153,621.917792 L779.582153,621.917792 L779.625,621.954 L780.041898,622.312083 L780.041898,622.312083 L780.477,622.692 L780.080667,622.345627 L780.479025,622.692981 L780.479025,622.692981 L780.652,622.846 L780.874905,623.043087 L780.874905,623.043087 L780.932309,623.094266 L780.932309,623.094266 L781.294,623.419 L781.552,623.654 L781.62,623.716 L781.781,623.864 L781.803914,623.884441 L781.803914,623.884441 L782.136221,624.192305 L782.136221,624.192305 L782.185,624.238 L782.187,624.24 L782.466,624.502 L782.534,624.566 L782.557658,624.588131 L782.557658,624.588131 L782.634771,624.661218 L782.634771,624.661218 L782.972,624.983 L782.979,624.99 L783.396,625.394 L783.398451,625.396321 L783.437114,625.434091 L783.437114,625.434091 L783.808,625.8 L783.818954,625.81004 C783.95858,625.948493 784.097665,626.08749 784.236205,626.22703 L784.242237,626.233106 L784.6,626.596 L784.635809,626.632567 L784.635809,626.632567 L784.638323,626.635137 L784.978,626.985 L785.035,627.044 L785.037335,627.046291 L785.347,627.37 L785.441135,627.468815 L785.441135,627.468815 L785.704,627.748 L785.815,627.866 L786.051,628.121 L785.841664,627.89447 L786.052,628.121 L786.238518,628.322817 L786.238518,628.322817 L786.389,628.488 L786.56,628.675 L786.718,628.85 L786.959,629.117 L786.975,629.135 L786.998083,629.161594 L786.998083,629.161594 L787.348,629.556 L787.037,629.206 L787.35,629.559 L787.647,629.9 L787.725,629.989 L787.94,630.239 L788.087455,630.410211 L788.087455,630.410211 L788.15711,630.49196 L788.15711,630.49196 L788.454,630.843 L788.224,630.572 L788.5,630.898 L788.767,631.219 L788.867925,631.339926 L788.867925,631.339926 L789.027,631.534 L788.866,631.339 L789.195772,631.739699 L789.279,631.843 L789.558,632.189 L789.76,632.442 L789.918643,632.641392 L789.945286,632.675173 L789.945286,632.675173 L789.99,632.733 L790.213,633.017 L790.275028,633.096576 L790.275028,633.096576 L790.62797,633.554564 L790.97526,634.012428 L790.978298,634.016465 L791.225,634.346 L791.315,634.467 L791.407,634.593 L791.651599,634.925479 L791.651599,634.925479 L791.583,634.833 L791.684,634.971 L791.984151,635.385216 L791.984151,635.385216 L792.229,635.729 L792.313301,635.847557 L792.313301,635.847557 L792.36424,635.919772 L792.36424,635.919772 L792.517,636.138 L792.644,636.32 L792.653,636.333 L792.907,636.702 L792.971668,636.795111 L792.971668,636.795111 L793.004985,636.843898 L793.004985,636.843898 L793.026,636.876 L793.249,637.204 L793.139,637.043 L793.3,637.28 L793.543,637.644 L793.626299,637.769146 L793.631,637.777 L793.635916,637.783702 L793.714,637.903 L793.865,638.134 L793.947981,638.260117 L793.947981,638.260117 L794.108,638.509 L794.157,638.584 L794.156,638.584 L794.24,638.714 L794.248,638.726 L794.265914,638.753746 L794.275,638.768 L794.304,638.814 L794.328,638.852 L794.348,638.884 L794.363,638.907 L794.373,638.924 L794.38,638.934 L794.381,638.936 L794.383,638.939 L794.386,638.943 L794.394,638.956 L794.411,638.983 L794.435,639.021 L794.466,639.07 L794.503,639.129 L794.547591,639.198294 L794.547591,639.198294 L794.548,639.199 L794.56535,639.226553 L794.56535,639.226553 L794.598,639.279 L794.654,639.369 L794.717,639.47 L794.786,639.581 L794.861346,639.701738 L794.861346,639.701738 L794.862,639.702 L794.872,639.719 L794.942,639.833 L795.028,639.974 L795.12,640.124 L795.146,640.167 L795.192617,640.243117 L795.217,640.285 L795.32,640.455 L795.472,640.708 L795.488,640.735 L795.658,641.022 L795.54,640.824 L795.729,641.143 L795.906,641.447 L796.026635,641.653729 L796.026635,641.653729 L796.038,641.674 L796.099002,641.779524 L796.099002,641.779524 L796.284,642.104 L796.172,641.909 L796.311,642.153 L796.577399,642.625651 L796.577399,642.625651 L796.601,642.669 L796.68708,642.823319 L796.68708,642.823319 L796.868,643.153 L796.904,643.219 L797.035,643.462 L796.957308,643.316428 L797.06,643.507 L797.210392,643.786394 L797.210392,643.786394 L797.219,643.803 L797.381,644.108 L797.431,644.203 L797.579,644.487 L797.702839,644.724663 L797.702839,644.724663 L797.727,644.773 L797.88,645.072 L797.965458,645.238638 L797.965458,645.238638 L798.051,645.41 L798.196,645.698 L798.224227,645.754891 L798.224,645.755 L798.478,646.273 L798.489,646.295 L798.573,646.47 L798.687,646.705 L798.751,646.839 L798.929,647.215 L798.972122,647.306159 L798.977649,647.317974 L798.977649,647.317974 L799.108,647.599 L799.222,647.846 L799.267,647.944 L799.288,647.991 L799.455,648.361 L799.468,648.39 L799.649,648.796 L799.693,648.896 L799.70667,648.925834 L799.83,649.209 L799.940201,649.46327 L799.940201,649.46327 L800.011,649.63 L800.146,649.947 L800.169644,650.002877 L800.192,650.058 L800.373,650.492 L800.391058,650.535097 L800.391058,650.535097 L800.553,650.934 L800.584,651.01 L800.608489,651.069375 L800.733,651.382 L800.792305,651.530545 L800.941,651.913 L800.912,651.837 L800.942409,651.913921 L800.942409,651.913921 L801.05522,652.206236 L801.246906,652.711539 L801.246906,652.711539 L801.357,653.008 L801.245,652.711 L801.383,653.081 L801.617555,653.721557 L801.617555,653.721557 L801.62914,653.753869 L801.62914,653.753869 L801.79,654.209 L801.819275,654.291048 L801.836089,654.339192 L801.836089,654.339192 L801.961,654.702 L802.020056,654.87301 L802.020056,654.87301 L802.049365,654.959291 L802.247,655.553 L802.387,655.984 L802.298,655.708 L802.388604,655.98437 L802.388604,655.98437 L802.441648,656.149299 L802.463,656.219 L802.604006,656.662534 L802.604006,656.662534 L802.677,656.901 L802.744214,657.116484 L802.744214,657.116484 L802.787,657.259 L802.904,657.649 L802.945,657.788 L803.043931,658.123398 L803.043931,658.123398 L803.088448,658.277538 L803.088448,658.277538 L803.156,658.516 L803.209319,658.702495 L803.209319,658.702495 L803.246463,658.835043 L803.254,658.863 L803.4,659.396 L803.403,659.408 L803.520758,659.844751 C803.570247,660.032126 803.619029,660.219789 803.6671,660.407736 L803.550966,659.959495 L803.694,660.515 L803.702,660.546 L803.811,660.982 L803.834,661.076 L803.849477,661.136076 L803.966,661.621 L803.967,661.624 L803.971,661.642 L803.979,661.673 L804.095,662.173 L804.234782,662.789842 L804.234782,662.789842 L804.241173,662.818786 L804.241173,662.818786 L804.357,663.357 L804.36,663.371 L804.42,663.656 L804.482,663.957 L804.488914,663.98632 L804.488914,663.98632 L804.598,664.533 L804.60111,664.54775 L804.715424,665.144302 L804.715424,665.144302 L804.813,665.676 L804.825012,665.742518 L804.930429,666.345745 L804.930429,666.345745 L805.031007,666.950502 C805.122123,667.512603 805.20697,668.076685 805.285492,668.642788 C805.426589,669.660037 805.547239,670.683552 805.647054,671.713161 C805.702271,672.282762 805.751089,672.853945 805.793465,673.42692 C805.841081,674.070731 805.880569,674.71693 805.911816,675.365289 L805.959912,676.558316 C805.977683,677.106041 805.989576,677.65525 805.99553,678.205884 L806,679.032895 L806,679.032895 C806,720.436084 772.421356,754 731,754 C689.578644,754 656,720.436084 656,679.032895 L690.892816,679.032848 C690.886762,679.322704 690.883721,679.613299 690.883721,679.904605 C690.883721,702.531929 709.23484,720.875 731.872093,720.875 C754.509346,720.875 772.860465,702.531929 772.860465,679.904605 C772.860465,657.277281 754.509346,638.934211 731.872093,638.934211 C731.580324,638.934211 731.289267,638.937258 730.998952,638.943322 L730.998,638.934 L729.759738,638.924167 C711.944409,638.635445 695.639081,632.137749 682.915199,621.501612 C695.933972,610.615833 712.701728,604.065789 731,604.065789 L732.240262,604.075833 C733.190606,604.091235 734.136654,604.124304 735.07809,604.174728 C735.633213,604.204458 736.186918,604.240238 736.739015,604.281996 L737.458,604.34 L737.634,604.355 L738.340045,604.420239 L738.340045,604.420239 L737.867,604.376 L738.264994,604.412991 L738.264994,604.412991 L738.72,604.458 L738.934245,604.480308 L738.934245,604.480308 L738.962192,604.483251 L739.52707,604.54499 L739.52707,604.54499 L739.156,604.504 L739.543314,604.546829 L739.543314,604.546829 L739.653,604.559 L740.136532,604.616453 L740.136532,604.616453 L740.664,604.682 L740.886,604.711 L741.336975,604.772011 L741.336975,604.772011 L741.768,604.833 L741.919714,604.854641 L741.919714,604.854641 L742.552,604.95 L742.783,604.986 L743.19,605.051 L743.31,605.071 L743.822,605.157 L743.759,605.146 L743.31,605.071 L743.681557,605.132991 L743.681557,605.132991 L743.759,605.146 L743.826,605.157 L743.822,605.157 L743.835,605.158 L743.860989,605.16376 L743.860989,605.16376 Z M916,489 C957.421356,489 991,522.578644 991,564 C991,578.868532 986.67336,592.726524 979.210422,604.383634 C970.569084,597.149702 960.669267,591.371282 949.887211,587.42296 C954.898356,580.625662 957.860465,572.222703 957.860465,563.127907 C957.860465,540.490654 939.509346,522.139535 916.872093,522.139535 C894.23484,522.139535 875.883721,540.490654 875.883721,563.127907 C875.883721,563.419341 875.886762,563.710064 875.892816,564.000047 L841,564 C841,522.578644 874.578644,489 916,489 Z M1100,489 C1141.42136,489 1175,522.578644 1175,564 C1175,578.868532 1170.67336,592.726524 1163.21042,604.383634 C1154.56908,597.149702 1144.66927,591.371282 1133.88721,587.42296 C1138.89836,580.625662 1141.86047,572.222703 1141.86047,563.127907 C1141.86047,540.490654 1123.50935,522.139535 1100.87209,522.139535 C1078.23484,522.139535 1059.88372,540.490654 1059.88372,563.127907 C1059.88372,563.419341 1059.88676,563.710064 1059.89282,564.000047 L1025,564 C1025,522.578644 1058.57864,489 1100,489 Z M1285,489 C1326.42136,489 1360,522.578644 1360,564 L1360,564 L1325.10718,564.000047 C1325.11324,563.710064 1325.11628,563.419341 1325.11628,563.127907 C1325.11628,540.490654 1306.76516,522.139535 1284.12791,522.139535 C1261.49065,522.139535 1243.13953,540.490654 1243.13953,563.127907 C1243.13953,572.222703 1246.10164,580.625662 1251.11279,587.42296 C1240.33073,591.371282 1230.43092,597.149702 1221.78958,604.383634 C1214.32664,592.726524 1210,578.868532 1210,564 C1210,522.578644 1243.57864,489 1285,489 Z M731,489 C772.421356,489 806,522.563916 806,563.967105 L771.107184,563.967152 C771.113238,563.677296 771.116279,563.386701 771.116279,563.095395 C771.116279,540.468071 752.76516,522.125 730.127907,522.125 C707.490654,522.125 689.139535,540.468071 689.139535,563.095395 C689.139535,572.186123 692.101593,580.58533 697.113623,587.381328 C686.33115,591.326229 676.431683,597.101821 667.790553,604.330567 C660.326745,592.681365 656,578.829296 656,563.967105 C656,522.563916 689.578644,489 731,489 Z" id="Combined-Shape"></path>
        </g>
    </g>
</svg>